<svg xmlns="http://www.w3.org/2000/svg" xmlns:xlink="http://www.w3.org/1999/xlink" width="2000" zoomAndPan="magnify" viewBox="0 0 1500 1499.999933" height="2000" preserveAspectRatio="xMidYMid meet" version="1.0"><path fill="#fff6ea" d="M 1065.71875 926.46875 L 1044.066406 933.175781 C 1042.511719 933.664062 1041.066406 934.496094 1039.921875 935.660156 C 1020.265625 955.996094 1012.214844 994.976562 1019.855469 1034.660156 C 1020.460938 1037.796875 1021.195312 1041.03125 1022.027344 1044.261719 L 1022.902344 1047.925781 C 1023.730469 1050.644531 1024.722656 1053.570312 1025.921875 1056.910156 C 1022.632812 1024.460938 1019.960938 992.492188 1034.03125 966.988281 C 1045.910156 945.4375 1058.777344 950.316406 1069.570312 931.332031 C 1071.074219 928.695312 1068.625 925.570312 1065.71875 926.46875 Z M 780.613281 819.96875 L 798.023438 724.5625 C 798.734375 720.746094 796.261719 717.003906 792.433594 716.289062 C 780.242188 714.0625 767.816406 712.847656 755.273438 712.648438 C 750.746094 752.4375 764.339844 774.300781 753.976562 817.5625 C 766.554688 816.617188 780.613281 819.96875 780.613281 819.96875 Z M 720.15625 731.585938 C 719.394531 719.453125 727.433594 723.5 736.59375 713.199219 C 729.652344 713.675781 722.722656 714.445312 715.847656 715.542969 C 712.046875 716.160156 709.492188 719.8125 710.085938 723.617188 L 724.566406 817.214844 C 728.976562 809.558594 720.703125 740.59375 720.15625 731.585938 Z M 115.597656 671.800781 C 127.355469 670.777344 140.539062 673.75 140.539062 673.75 L 155.777344 584.296875 C 156.398438 580.714844 154.027344 577.238281 150.445312 576.621094 C 139.011719 574.671875 127.378906 573.667969 115.632812 573.621094 C 111.839844 610.910156 124.800781 631.210938 115.597656 671.800781 Z M 485.453125 833.78125 C 529.800781 815.335938 686.796875 786.679688 658.808594 788.933594 C 601.320312 793.585938 549.027344 802.617188 506.558594 815.464844 C 445.515625 833.921875 423.371094 854.816406 423.371094 864.363281 L 423.371094 885.839844 C 433.113281 859.847656 457.824219 845.261719 485.453125 833.78125 Z M 1254.265625 1042.988281 C 1240.3125 1031.171875 1228.621094 1025.371094 1214.457031 1022.769531 C 1193.398438 1018.90625 1186.933594 988.933594 1197.992188 975.398438 C 1218.46875 950.339844 1344.347656 924.34375 1348.164062 900.191406 C 1350.125 887.777344 1349.902344 872.855469 1341.246094 842.90625 L 1341.246094 882.15625 C 1341.246094 893.949219 1333.652344 904.171875 1322.355469 907.578125 C 1247.789062 930.0625 1192.429688 949.054688 1162.246094 962.507812 C 1152.59375 966.8125 1154.101562 982.726562 1156.667969 1000.066406 L 1157.085938 1002.910156 C 1158.859375 1015.210938 1161.824219 1024.988281 1164.929688 1032.335938 C 1168.953125 1041.871094 1178.800781 1047.550781 1189.089844 1046.476562 C 1194.328125 1045.941406 1199.917969 1045.566406 1205.519531 1045.566406 C 1225.984375 1045.566406 1241.257812 1050.492188 1252.164062 1060.640625 C 1256.480469 1064.65625 1269.328125 1076.589844 1317.78125 1206.019531 C 1324.011719 1201.28125 1278.730469 1063.710938 1254.265625 1042.988281 Z M 82.984375 591.742188 C 82.144531 580.386719 89.71875 584.085938 98.164062 574.34375 C 91.667969 574.871094 85.191406 575.664062 78.785156 576.773438 C 75.226562 577.390625 72.882812 580.832031 73.476562 584.390625 L 88.074219 671.800781 C 92.109375 664.59375 83.605469 600.152344 82.984375 591.742188 Z M 953.46875 1046.898438 C 955.707031 1062.753906 960.875 1078.15625 968.484375 1091.597656 C 946.722656 1024.460938 972.871094 969.296875 989.835938 950.339844 C 963.105469 962.378906 947.296875 1003.367188 953.46875 1046.898438 Z M 1388.453125 669.667969 C 1399.476562 667.847656 1413.445312 670.777344 1413.445312 670.777344 L 1428.167969 584.296875 C 1428.785156 580.714844 1426.429688 577.238281 1422.835938 576.621094 C 1411.402344 574.671875 1399.769531 573.667969 1388.019531 573.621094 C 1384.230469 610.910156 1397.65625 629.078125 1388.453125 669.667969 Z M 1484.359375 902.792969 C 1481.464844 882.386719 1468.816406 865.214844 1453.847656 860.640625 C 1453.242188 860.453125 1452.65625 860.277344 1452.085938 860.125 C 1452.027344 860.113281 1451.96875 860.089844 1451.910156 860.078125 C 1450.464844 859.707031 1449.054688 859.425781 1447.546875 859.203125 C 1444.816406 858.820312 1442.027344 858.738281 1439.265625 858.996094 C 1433.710938 859.507812 1428.191406 861.621094 1423.875 865.097656 C 1419.5 868.527344 1416.371094 873.007812 1414.074219 877.652344 C 1411.777344 882.339844 1410.339844 887.347656 1409.617188 892.375 C 1408.195312 902.457031 1409.265625 912.628906 1412.359375 922.082031 C 1415.496094 931.496094 1420.863281 940.1875 1428.238281 946.617188 C 1421.402344 939.628906 1416.875 930.714844 1414.5625 921.4375 C 1412.300781 912.164062 1412.089844 902.339844 1414.132812 893.214844 C 1415.160156 888.652344 1416.816406 884.277344 1419.136719 880.371094 C 1421.449219 876.460938 1424.410156 873.007812 1427.957031 870.671875 C 1429.007812 869.972656 1430.117188 869.390625 1431.261719 868.910156 C 1431.738281 868.65625 1432.207031 868.363281 1432.707031 868.140625 C 1436.5 866.378906 1440.804688 865.65625 1444.886719 865.996094 C 1453.183594 866.671875 1460.007812 871.234375 1465.117188 876.554688 C 1475.351562 887.417969 1480.042969 902.363281 1478.734375 916.421875 C 1478.523438 902.304688 1472.164062 888.605469 1461.933594 879.925781 C 1456.871094 875.65625 1450.628906 872.691406 1444.652344 872.949219 C 1440.734375 873.019531 1437.199219 874.535156 1434.199219 876.9375 C 1434.375 905.605469 1459.589844 958.714844 1468.992188 951.074219 C 1480.460938 941.738281 1487.136719 922.464844 1484.359375 902.792969 Z M 1440.394531 969.203125 C 1435.925781 968.097656 1431.597656 966.242188 1427.539062 963.746094 C 1419.066406 970.710938 1410.921875 978.128906 1403.445312 986.25 C 1390.5625 1000.230469 1379.433594 1016.421875 1373.285156 1034.660156 C 1370.214844 1043.734375 1368.269531 1053.222656 1367.894531 1062.753906 C 1367.472656 1072.273438 1368.429688 1081.796875 1370.507812 1090.988281 C 1372.503906 1100.207031 1375.992188 1108.992188 1379.1875 1117.660156 L 1388.871094 1143.796875 L 1380.773438 1117.113281 C 1378.078125 1108.175781 1375.1875 1099.414062 1373.785156 1090.347656 C 1370.742188 1072.285156 1372.5625 1053.605469 1379.527344 1036.992188 C 1386.292969 1020.273438 1397.578125 1005.734375 1410.574219 993.214844 C 1419.746094 984.371094 1429.847656 976.519531 1440.394531 969.203125 Z M 1372.816406 1185.507812 C 1364.535156 1184.921875 1356.273438 1185.214844 1348.128906 1185.773438 C 1333.976562 1145.988281 1309.476562 1073.917969 1306.207031 1042.988281 C 1297.867188 963.964844 1379.886719 962.167969 1387.578125 843.851562 C 1389.480469 843.300781 1391.382812 842.730469 1393.316406 842.261719 C 1399.476562 840.664062 1405.777344 839.578125 1412.148438 838.648438 C 1418.519531 837.75 1424.984375 837.257812 1431.492188 837.09375 C 1438.003906 836.953125 1444.5625 837.105469 1451.117188 837.980469 C 1444.980469 835.496094 1438.539062 833.664062 1432.019531 832.136719 C 1425.484375 830.644531 1418.824219 829.453125 1412.089844 828.683594 C 1405.347656 827.960938 1398.519531 827.410156 1391.660156 827.410156 C 1389.011719 827.363281 1386.363281 827.421875 1383.703125 827.503906 C 1347.195312 827.996094 1334.746094 834.316406 1331.28125 836.804688 L 1331.28125 882.15625 C 1331.28125 889.46875 1326.476562 895.933594 1319.476562 898.046875 C 1244.523438 920.644531 1188.753906 939.792969 1158.195312 953.417969 C 1139.808594 961.609375 1144.871094 988.011719 1147.230469 1004.335938 C 1149.492188 1020.039062 1153.738281 1032.664062 1158.335938 1041.789062 C 1163.632812 1052.289062 1175.007812 1058.191406 1186.675781 1056.78125 C 1192.589844 1056.058594 1199.089844 1055.519531 1205.519531 1055.519531 C 1223.359375 1055.519531 1236.402344 1059.582031 1245.386719 1067.933594 C 1259.152344 1080.722656 1291.460938 1163.515625 1313.605469 1223.355469 C 1313.617188 1223.34375 1313.617188 1223.34375 1313.617188 1223.34375 C 1322.320312 1213.390625 1336.625 1204.082031 1354.09375 1198.085938 C 1372.96875 1191.597656 1391.335938 1190.417969 1404.625 1193.8125 C 1404.785156 1193.847656 1404.949219 1193.871094 1405.125 1193.90625 C 1395.347656 1188.972656 1384.148438 1186.242188 1372.816406 1185.507812 Z M 1326.625 1225.140625 L 1326.707031 1225 C 1326.835938 1224.769531 1326.765625 1224.476562 1326.535156 1224.335938 C 1326.347656 1224.230469 1326.125 1224.265625 1325.972656 1224.394531 C 1321.691406 1228.09375 1317.699219 1232.316406 1315.144531 1237.566406 C 1314.015625 1240.191406 1313.046875 1243.273438 1314.152344 1246.328125 C 1315.308594 1249.316406 1317.933594 1251.183594 1320.476562 1252.5 C 1325.726562 1255.113281 1331.492188 1256.046875 1337.175781 1256.398438 C 1342.878906 1256.714844 1348.585938 1256.316406 1354.207031 1255.453125 C 1365.445312 1253.585938 1376.304688 1249.898438 1386.421875 1244.742188 C 1396.398438 1239.46875 1406.035156 1232.65625 1412.195312 1222.925781 C 1412.347656 1222.691406 1412.277344 1222.398438 1412.042969 1222.257812 C 1411.867188 1222.144531 1411.648438 1222.15625 1411.496094 1222.28125 L 1411.355469 1222.398438 C 1388.511719 1247.519531 1295.417969 1266.910156 1326.625 1225.140625 Z M 1223.3125 1074.339844 C 1222.890625 1074.210938 1222.484375 1074.082031 1222.0625 1073.964844 C 1220.746094 1076.71875 1219.320312 1079.402344 1217.816406 1082.0625 C 1214.746094 1087.117188 1211.234375 1091.921875 1207.246094 1096.332031 C 1211.433594 1092.109375 1215.191406 1087.464844 1218.527344 1082.507812 C 1220.207031 1079.847656 1221.816406 1077.117188 1223.3125 1074.339844 Z M 1140.367188 1120.25 C 1122.261719 1109.003906 1107.992188 1092.867188 1097.128906 1075.144531 C 1086.253906 1057.339844 1078.789062 1037.726562 1074.46875 1017.648438 L 1074.402344 1017.660156 C 1066.570312 974.910156 1074.609375 934.320312 1093.394531 907.472656 L 1036.632812 925.054688 C 1012.621094 946.070312 1001.058594 989.785156 1010.078125 1036.550781 C 1010.742188 1039.992188 1011.511719 1043.386719 1012.375 1046.734375 L 1012.191406 1046.769531 C 1013.4375 1051.320312 1014.921875 1055.777344 1016.519531 1060.199219 C 1018.1875 1064.960938 1019.984375 1069.625 1022.050781 1074.070312 C 1022.09375 1074.046875 1022.140625 1074.011719 1022.199219 1073.988281 C 1024.253906 1078.421875 1026.449219 1082.796875 1028.898438 1087.011719 C 1036.167969 1099.472656 1045.207031 1110.871094 1055.964844 1120.066406 C 1046.785156 1109.296875 1039.886719 1096.976562 1034.871094 1084.117188 C 1032.992188 1079.273438 1031.464844 1074.339844 1030.097656 1069.371094 C 1035.394531 1066.253906 1040.683594 1063.140625 1046.003906 1060.070312 C 1054.460938 1055.183594 1062.988281 1050.457031 1071.554688 1045.824219 C 1077.140625 1057.539062 1083.828125 1068.667969 1091.65625 1078.902344 C 1104.792969 1096.054688 1121.175781 1110.953125 1140.367188 1120.25 Z M 1083.664062 1190.152344 C 1076.734375 1187.257812 1069.804688 1184.351562 1062.875 1181.457031 L 1080.339844 1379.617188 Z M 1069.664062 1470.015625 L 848.097656 1448.6875 C 821.824219 1446.15625 798.59375 1434.128906 781.617188 1416.230469 C 772.0625 1420.160156 760.910156 1422.425781 748.984375 1422.425781 C 713.621094 1422.425781 684.941406 1402.542969 684.941406 1377.996094 L 681.664062 1274.238281 C 646.742188 1251.976562 623.546875 1212.925781 623.546875 1168.425781 C 623.546875 1126.773438 643.875 1089.882812 675.117188 1067.070312 L 674.535156 1048.648438 C 634.550781 1073.582031 607.867188 1117.929688 607.867188 1168.425781 C 607.867188 1189.601562 612.59375 1209.695312 620.992188 1227.742188 C 557.007812 1191.527344 483.75 1152.558594 455.070312 1146.691406 L 451.664062 1146.105469 C 448.957031 1260.667969 454.757812 1386.40625 454.757812 1386.40625 C 454.757812 1446.238281 557.859375 1430.929688 585.476562 1458.023438 L 447.640625 1458.023438 C 434.234375 1458.023438 423.371094 1447.160156 423.371094 1433.742188 L 423.371094 1141.265625 L 413.40625 1139.5625 L 413.40625 1443.707031 C 413.40625 1457.113281 424.269531 1467.988281 437.675781 1467.988281 L 747.527344 1467.988281 Z M 398.925781 1053.523438 C 407.78125 1035.300781 412.917969 1015.359375 415.25 995.175781 C 417.421875 975.015625 416.777344 953.828125 408.902344 933.96875 C 404.9375 924.144531 398.890625 914.753906 390.574219 907.449219 C 382.757812 900.496094 373.027344 895.746094 362.933594 893.25 C 360.132812 892.351562 356.25 891.921875 351.089844 891.953125 C 332.015625 892.09375 313.488281 902.292969 298.484375 919.070312 C 317.6875 925.917969 334.921875 932.464844 348.570312 938.25 C 348.675781 938.296875 348.78125 938.355469 348.898438 938.402344 C 356.832031 925.628906 363.726562 915.40625 366.945312 907.871094 C 372.792969 909.734375 378.300781 912.523438 383.128906 916.351562 C 390.222656 921.882812 395.8125 929.441406 399.800781 937.925781 C 407.792969 955.050781 409.765625 975.097656 408.714844 994.628906 C 407.574219 1014.277344 403.640625 1033.914062 395.953125 1052.171875 C 392.160156 1061.320312 387.386719 1070.09375 381.648438 1078.214844 C 375.953125 1086.367188 369.128906 1093.753906 361.277344 1099.972656 C 369.445312 1094.1875 376.746094 1087.117188 382.953125 1079.183594 C 389.207031 1071.28125 394.539062 1062.636719 398.925781 1053.523438 Z M 357.695312 980.464844 C 357.566406 974.582031 356.738281 968.492188 353.972656 962.972656 C 352.5625 960.257812 350.695312 957.699219 348.300781 955.71875 C 345.992188 953.710938 343.074219 952.207031 340.425781 951.203125 C 335.070312 948.914062 329.65625 946.875 324.234375 944.84375 C 302.507812 936.828125 280.585938 929.488281 258.648438 922.183594 C 236.714844 914.90625 214.664062 907.984375 192.613281 901.054688 C 192.226562 900.9375 191.808594 901.101562 191.621094 901.464844 C 191.421875 901.871094 191.574219 902.375 191.984375 902.582031 L 192.097656 902.640625 C 212.949219 913.292969 234.125 922.828125 255.394531 931.949219 L 271.320312 938.847656 L 287.316406 945.425781 L 303.21875 952.113281 C 308.492188 954.363281 313.835938 956.40625 319.0625 958.621094 C 324.269531 960.804688 329.542969 963.042969 334.3125 965.332031 L 336.121094 966.183594 C 336.378906 966.359375 336.683594 966.488281 336.902344 966.660156 C 337.371094 966.988281 337.777344 967.304688 338.082031 967.652344 C 338.734375 968.328125 339.191406 969.113281 339.738281 970.171875 C 340.765625 972.378906 341.453125 976.242188 341.40625 980.753906 C 341.347656 985.28125 340.882812 990.359375 340.101562 995.761719 L 339.480469 999.9375 L 338.839844 1003.796875 C 338.410156 1006.355469 337.824219 1008.851562 337.277344 1011.359375 C 336.109375 1016.363281 334.652344 1021.265625 332.84375 1025.945312 C 331.035156 1030.597656 328.921875 1035.101562 326.578125 1039.035156 C 325.46875 1040.878906 324.28125 1042.59375 323.195312 1043.886719 C 309.367188 1042.207031 294.949219 1041.261719 279.675781 1043.691406 C 270.972656 1045.230469 261.835938 1048.355469 253.75 1054.003906 C 251.765625 1055.460938 249.816406 1056.980469 248.054688 1058.707031 C 247.578125 1059.171875 247.226562 1059.476562 246.667969 1060.070312 C 246.144531 1060.628906 245.535156 1061.261719 245.152344 1061.773438 C 244.242188 1062.859375 243.539062 1063.863281 242.851562 1064.855469 C 240.285156 1068.773438 238.324219 1072.355469 236.632812 1076.054688 C 229.984375 1090.6875 224.78125 1105.046875 220.171875 1119.796875 L 216.742188 1130.796875 L 213.636719 1141.90625 C 211.558594 1149.292969 209.707031 1156.757812 208.003906 1164.273438 L 207.980469 1164.390625 C 207.886719 1164.785156 208.09375 1165.183594 208.46875 1165.347656 C 208.898438 1165.507812 209.378906 1165.3125 209.542969 1164.878906 C 215.222656 1150.773438 221.035156 1136.703125 227.113281 1122.769531 C 233.261719 1108.875 239.398438 1094.933594 246.726562 1081.703125 C 248.570312 1078.410156 250.519531 1075.167969 252.710938 1072.191406 C 254.835938 1069.207031 257.671875 1066.953125 260.761719 1064.902344 C 266.980469 1060.933594 274.25 1058.789062 281.636719 1057.785156 C 296.511719 1055.859375 311.714844 1057.75 326.601562 1060.316406 L 326.917969 1060.363281 L 327.136719 1060.316406 C 330.8125 1059.335938 332.84375 1056.992188 334.933594 1054.84375 C 336.960938 1052.605469 338.6875 1050.1875 340.277344 1047.691406 C 343.4375 1042.710938 345.992188 1037.390625 348.152344 1031.953125 C 352.492188 1021.066406 355.046875 1009.492188 356.421875 997.976562 C 357.191406 992.226562 357.800781 986.378906 357.695312 980.464844 Z M 317.582031 1112.363281 C 313.488281 1098.667969 311.105469 1085.597656 310.046875 1073.113281 C 298.761719 1071.820312 286.769531 1071.480469 277.28125 1074.140625 C 286.652344 1092.84375 300.605469 1106.648438 317.582031 1112.363281 Z M 192.355469 1231.769531 C 191.28125 1226.449219 189.101562 1221.210938 186.359375 1216.34375 C 183.605469 1211.445312 180.328125 1206.824219 176.699219 1202.449219 C 170.921875 1195.472656 164.25 1189.230469 157.0625 1183.535156 C 177.5625 1133.855469 207.125 1034.449219 148.207031 973.394531 C 128.535156 953.011719 117.289062 926.070312 117.917969 897.765625 C 118.304688 879.960938 117.835938 860.253906 115.28125 843.523438 C 116.726562 843.113281 118.164062 842.683594 119.621094 842.320312 C 125.511719 840.804688 131.5 839.660156 137.566406 838.691406 C 143.632812 837.816406 149.769531 837.1875 155.964844 836.964844 C 162.148438 836.78125 168.402344 836.839844 174.632812 837.726562 C 168.835938 835.226562 162.675781 833.488281 156.457031 832.007812 C 150.226562 830.5625 143.867188 829.511719 137.4375 828.730469 C 131.019531 828.039062 124.523438 827.550781 118 827.46875 C 115.957031 827.421875 113.90625 827.46875 111.851562 827.492188 C 111.851562 827.480469 111.839844 827.46875 111.839844 827.457031 C 71.214844 827.457031 58.167969 834.433594 54.820312 836.90625 L 54.425781 846.40625 C 56.839844 846.300781 59.289062 846.335938 61.75 846.683594 C 88.773438 850.511719 106.777344 881.234375 101.957031 915.289062 C 98.328125 940.875 82.855469 961.0625 63.921875 967.910156 C 103.089844 996.449219 147.25 1039.945312 122.96875 1108.628906 C 109.414062 1146.96875 101.175781 1176.113281 96.730469 1193.464844 C 96.730469 1193.464844 96.730469 1193.464844 96.730469 1193.476562 C 98.292969 1193.113281 99.9375 1192.835938 101.640625 1192.601562 C 102.003906 1192.542969 102.375 1192.519531 102.75 1192.484375 C 104.105469 1192.320312 105.46875 1192.179688 106.890625 1192.097656 C 107.429688 1192.0625 107.976562 1192.0625 108.527344 1192.039062 C 109.808594 1191.992188 111.105469 1191.972656 112.433594 1191.984375 C 113.097656 1191.992188 113.753906 1192.003906 114.417969 1192.027344 C 115.679688 1192.074219 116.960938 1192.144531 118.257812 1192.25 C 118.992188 1192.308594 119.726562 1192.367188 120.460938 1192.4375 C 121.734375 1192.566406 123.027344 1192.730469 124.335938 1192.902344 C 125.105469 1193.019531 125.875 1193.113281 126.667969 1193.242188 C 127.976562 1193.464844 129.316406 1193.722656 130.648438 1193.976562 C 131.429688 1194.140625 132.210938 1194.28125 132.992188 1194.457031 C 134.4375 1194.769531 135.910156 1195.15625 137.367188 1195.539062 C 138.054688 1195.714844 138.734375 1195.867188 139.421875 1196.066406 C 141.566406 1196.671875 143.738281 1197.335938 145.90625 1198.085938 C 145.929688 1198.097656 145.941406 1198.097656 145.964844 1198.109375 C 147.75 1198.726562 149.511719 1199.390625 151.238281 1200.078125 C 151.707031 1200.253906 152.160156 1200.441406 152.628906 1200.628906 C 154.179688 1201.269531 155.71875 1201.933594 157.214844 1202.636719 C 157.390625 1202.703125 157.5625 1202.785156 157.738281 1202.855469 C 159.335938 1203.601562 160.890625 1204.398438 162.40625 1205.191406 C 162.882812 1205.445312 163.351562 1205.691406 163.816406 1205.949219 C 165.019531 1206.601562 166.199219 1207.277344 167.339844 1207.964844 C 167.679688 1208.164062 168.03125 1208.363281 168.367188 1208.5625 C 169.699219 1209.367188 170.96875 1210.207031 172.21875 1211.058594 C 172.730469 1211.410156 173.246094 1211.769531 173.746094 1212.132812 C 174.574219 1212.714844 175.367188 1213.308594 176.160156 1213.90625 C 176.628906 1214.265625 177.128906 1214.628906 177.585938 1214.992188 C 178.613281 1215.820312 179.59375 1216.648438 180.535156 1217.488281 C 181.085938 1217.964844 181.597656 1218.445312 182.125 1218.933594 C 182.625 1219.414062 183.117188 1219.878906 183.59375 1220.359375 C 184.363281 1221.140625 185.097656 1221.910156 185.8125 1222.691406 C 186.300781 1223.226562 186.789062 1223.777344 187.246094 1224.3125 C 187.722656 1224.894531 188.179688 1225.492188 188.621094 1226.074219 C 188.925781 1226.460938 189.207031 1226.84375 189.472656 1227.230469 C 190.476562 1228.628906 191.375 1230.019531 192.132812 1231.417969 C 192.203125 1231.546875 192.285156 1231.652344 192.355469 1231.769531 Z M 183.289062 1237.625 C 180.816406 1232.550781 176.953125 1228.464844 172.8125 1224.882812 C 172.671875 1224.757812 172.453125 1224.734375 172.277344 1224.828125 C 172.054688 1224.964844 171.972656 1225.246094 172.101562 1225.46875 L 172.183594 1225.609375 C 202.378906 1266.011719 112.316406 1247.25 90.230469 1222.949219 L 90.101562 1222.84375 C 89.949219 1222.726562 89.730469 1222.703125 89.554688 1222.808594 C 89.34375 1222.949219 89.273438 1223.238281 89.414062 1223.460938 C 95.375 1232.875 104.6875 1239.46875 114.335938 1244.554688 C 124.125 1249.550781 134.636719 1253.121094 145.5 1254.929688 C 150.9375 1255.769531 156.46875 1256.140625 161.984375 1255.839844 C 167.480469 1255.5 173.058594 1254.601562 178.132812 1252.070312 C 180.582031 1250.796875 183.128906 1249 184.257812 1246.109375 C 185.320312 1243.144531 184.386719 1240.15625 183.289062 1237.625 Z M 65.789062 876.9375 C 62.800781 874.535156 59.265625 873.019531 55.34375 872.949219 C 49.371094 872.691406 43.128906 875.65625 38.066406 879.925781 C 27.832031 888.605469 21.476562 902.304688 21.265625 916.421875 C 19.957031 902.363281 24.648438 887.417969 34.882812 876.554688 C 39.992188 871.234375 46.816406 866.671875 55.113281 865.996094 C 59.195312 865.65625 63.5 866.378906 67.292969 868.140625 C 67.792969 868.363281 68.261719 868.65625 68.738281 868.910156 C 69.882812 869.390625 70.992188 869.972656 72.042969 870.671875 C 75.589844 873.007812 78.550781 876.460938 80.863281 880.371094 C 83.183594 884.277344 84.839844 888.652344 85.867188 893.214844 C 87.910156 902.339844 87.699219 912.164062 85.4375 921.4375 C 83.125 930.714844 78.597656 939.628906 71.761719 946.617188 C 79.136719 940.1875 84.503906 931.496094 87.640625 922.082031 C 90.734375 912.628906 91.804688 902.457031 90.382812 892.375 C 89.660156 887.347656 88.222656 882.339844 85.925781 877.652344 C 83.628906 873.007812 80.5 868.527344 76.125 865.097656 C 71.808594 861.621094 66.289062 859.507812 60.734375 858.996094 C 57.972656 858.738281 55.183594 858.820312 52.453125 859.203125 C 50.945312 859.425781 49.535156 859.707031 48.089844 860.078125 C 48.03125 860.089844 47.972656 860.113281 47.914062 860.125 C 47.339844 860.277344 46.757812 860.453125 46.152344 860.640625 C 31.183594 865.214844 18.535156 882.386719 15.640625 902.792969 C 12.863281 922.464844 19.550781 941.738281 31.007812 951.074219 C 40.410156 958.714844 65.625 905.605469 65.789062 876.9375 Z M 42.125 812.078125 L 46.980469 775.433594 L 51.730469 811.273438 L 56.957031 770.648438 L 61.738281 807.726562 L 66.929688 767.277344 L 71.703125 804.355469 L 76.917969 763.636719 L 81.726562 801.21875 L 86.894531 762.144531 L 91.828125 799.386719 L 96.871094 758.828125 L 101.863281 798.917969 L 106.855469 758.828125 L 111.839844 798.917969 L 116.832031 758.828125 L 121.816406 798.917969 L 126.808594 758.828125 L 131.859375 799.386719 L 136.785156 762.144531 L 141.976562 801.347656 L 146.769531 764.476562 L 151.964844 804.460938 L 156.746094 767.277344 L 161.960938 807.832031 L 166.722656 771.347656 L 171.949219 811.355469 L 176.699219 775.433594 L 181.550781 812.078125 L 181.550781 768.140625 C 178.332031 762.855469 154.144531 750.582031 111.839844 750.582031 C 69.542969 750.582031 45.359375 762.855469 42.125 768.140625 Z M 46.5 736.589844 L 51.179688 712.558594 L 55.519531 734.898438 L 60.515625 709.242188 L 64.855469 731.574219 L 69.835938 705.917969 L 74.304688 728.878906 L 79.171875 703.828125 L 83.722656 727.210938 L 88.503906 702.59375 L 93.230469 726.90625 L 97.839844 700.832031 L 102.296875 726.019531 L 106.855469 700.210938 L 111.675781 727.539062 L 116.507812 700.210938 L 121.171875 726.617188 L 125.839844 700.210938 L 130.648438 727.410156 L 135.175781 701.800781 L 139.957031 728.867188 L 144.507812 703.128906 L 149.417969 730.933594 L 153.84375 705.917969 L 158.589844 732.800781 L 163.175781 709.242188 L 168.167969 734.898438 L 172.507812 712.558594 L 177.1875 736.589844 L 177.1875 711.0625 C 173.640625 706 151.273438 694.972656 111.839844 694.972656 C 72.402344 694.972656 50.046875 706 46.5 711.0625 Z M 79.496094 680.949219 C 89.425781 679.292969 100.359375 678.371094 111.839844 678.371094 C 125.09375 678.371094 137.589844 679.597656 148.660156 681.765625 L 148.929688 681.765625 L 166.722656 579.570312 C 167.65625 574.25 164.179688 569.140625 158.882812 568.066406 C 144.53125 565.152344 129.921875 563.65625 115.246094 563.644531 C 115.164062 563.644531 115.082031 563.644531 115 563.644531 C 99.996094 563.644531 85.0625 565.175781 70.40625 568.207031 C 65.15625 569.292969 61.691406 574.34375 62.578125 579.628906 Z M 69.941406 552.070312 C 102.550781 547.601562 136.902344 548.371094 169.746094 555.769531 C 145.523438 546.390625 120.238281 540.113281 94.164062 537.464844 C 80.898438 536.109375 71.074219 524.605469 71.539062 511.28125 C 75.660156 394.980469 55.789062 111.5 70.058594 76.296875 C 71.65625 72.367188 73.839844 68.785156 76.441406 65.503906 C 82.109375 58.398438 89.917969 53.347656 98.386719 50.035156 C 111.359375 44.972656 125.152344 41.867188 139.339844 41.726562 C 150.363281 41.597656 161.542969 43.253906 172.148438 46.964844 C 182.753906 50.675781 192.8125 56.464844 201.269531 64.363281 C 194.046875 55.332031 184.65625 47.875 174.132812 42.402344 C 163.609375 36.910156 151.976562 33.199219 139.980469 31.773438 C 95.339844 26.523438 39.652344 39.160156 39.652344 66.148438 L 58.671875 542.621094 C 58.902344 548.488281 64.132812 552.863281 69.941406 552.070312 Z M 405.847656 912.011719 L 407.515625 914.355469 C 412.824219 921.800781 417.445312 929.722656 420.792969 938.226562 C 424.128906 946.722656 426.394531 955.683594 427.523438 964.886719 C 428.609375 974.082031 428.808594 983.472656 428.199219 992.855469 C 427.652344 1002.234375 426.484375 1011.640625 425.027344 1021.019531 C 427.746094 1011.929688 429.984375 1002.65625 431.480469 993.191406 C 432.914062 983.742188 433.683594 974.09375 433.136719 964.398438 C 432.65625 954.714844 430.941406 944.984375 427.734375 935.683594 L 427.617188 935.359375 C 425.484375 929.082031 431.421875 923.058594 437.722656 925.113281 L 438.035156 925.21875 L 441.445312 926.292969 C 463.9375 933.386719 481.835938 951.109375 488.089844 973.847656 C 488.125 974 488.171875 974.152344 488.207031 974.316406 C 492.558594 990.078125 493.886719 1006.773438 492.78125 1023.308594 C 492.242188 1031.589844 491.101562 1039.851562 489.328125 1047.996094 C 487.636719 1056.164062 485.371094 1064.222656 482.441406 1072.054688 C 476.632812 1087.746094 468.300781 1102.621094 457.136719 1115.503906 C 470.015625 1104.265625 479.898438 1089.671875 487.167969 1074.023438 C 494.320312 1058.261719 498.917969 1041.332031 500.832031 1024.019531 C 502.699219 1006.714844 501.867188 988.957031 497.480469 971.828125 C 495.21875 963.300781 492.113281 954.914062 487.820312 947.035156 C 483.550781 939.160156 478.019531 931.789062 471.054688 925.753906 L 470.25 925.054688 L 469.28125 924.765625 L 440.847656 916.105469 L 412.34375 907.742188 L 409.488281 906.890625 C 406.453125 906.003906 404.015625 909.433594 405.847656 912.011719 Z M 658.796875 945.34375 L 658.796875 894.523438 C 658.796875 892.070312 660.734375 889.714844 664.269531 887.519531 C 664.140625 887.089844 664.046875 886.644531 664.046875 886.203125 L 664.046875 858.832031 C 588.535156 865.421875 531.984375 879.285156 500.796875 888.523438 C 477.519531 895.433594 459.191406 902.398438 444.980469 908.929688 L 459.539062 913.445312 C 471.21875 908.605469 485.6875 903.402344 503.628906 898.082031 C 519.40625 893.402344 541.828125 887.507812 570.054688 882.003906 C 603.761719 875.410156 554.746094 895.980469 512.382812 929.886719 C 513.722656 930.316406 515.042969 930.808594 516.335938 931.34375 C 548.339844 938.730469 614.9375 943.128906 658.796875 945.34375 Z M 557.976562 1032.335938 C 558.082031 1034.566406 557.894531 1036.804688 557.882812 1039.035156 C 557.953125 1043.515625 557.335938 1047.972656 557.03125 1052.441406 C 555.960938 1061.34375 554.09375 1070.164062 551.515625 1078.808594 C 546.078125 1095.960938 537.664062 1112.480469 525.132812 1126.085938 C 539.578125 1114.441406 550.125 1098.175781 557.042969 1080.746094 C 563.953125 1063.222656 567.078125 1044.203125 566.554688 1025.230469 C 566.144531 1015.746094 565.046875 1006.226562 562.632812 996.949219 C 560.136719 987.699219 556.578125 978.65625 551.675781 970.253906 C 546.765625 961.867188 540.300781 954.210938 532.332031 948.226562 C 528.34375 945.25 523.980469 942.707031 519.335938 940.804688 C 515.800781 939.382812 512.542969 938.414062 509.3125 937.480469 L 509.3125 937.46875 L 505.765625 936.429688 L 497.097656 933.898438 L 494.296875 933.082031 C 491.378906 932.230469 488.941406 935.417969 490.527344 938.007812 L 492 940.398438 C 496.558594 947.832031 500.292969 955.855469 503.257812 964.1875 C 506.175781 972.554688 508.308594 981.222656 509.792969 990.054688 C 512.660156 1007.730469 512.753906 1025.945312 510.679688 1044.085938 C 515.414062 1026.457031 517.210938 1007.835938 515.589844 989.332031 C 514.832031 980.078125 513.152344 970.863281 510.515625 961.867188 C 509.953125 959.90625 509.335938 957.96875 508.671875 956.042969 C 507.199219 951.796875 511.414062 947.808594 515.554688 949.582031 L 515.648438 949.617188 C 519.5 951.238281 523.128906 953.40625 526.488281 955.960938 C 533.21875 961.097656 538.703125 967.886719 543.148438 975.320312 C 547.617188 982.761719 550.953125 990.941406 553.355469 999.433594 C 555.574219 1007.988281 557.089844 1016.761719 557.710938 1025.652344 Z M 413.40625 899.152344 L 417.445312 900.402344 C 466.308594 871.957031 560.882812 847.957031 664.394531 838.960938 C 666.566406 833.347656 679.390625 828.4375 698.289062 825.230469 L 690.214844 776.878906 C 517.246094 785.640625 413.40625 830.933594 413.40625 864.363281 Z M 693.738281 679.863281 C 694.101562 685.988281 699.632812 690.46875 705.699219 689.535156 C 739.699219 684.273438 775.609375 684.460938 810.074219 691.589844 C 784.582031 682.234375 758.039062 676.121094 730.75 673.820312 C 716.851562 672.652344 706.375 660.8125 706.621094 646.882812 C 708.824219 525.238281 682.914062 229.316406 697.191406 192.273438 C 698.78125 188.128906 701.007812 184.339844 703.667969 180.871094 C 709.457031 173.335938 717.53125 167.921875 726.328125 164.304688 C 739.789062 158.773438 754.152344 155.273438 768.972656 154.878906 C 780.5 154.550781 792.199219 156.066406 803.367188 159.765625 C 814.507812 163.441406 825.125 169.296875 834.109375 177.417969 C 826.398438 168.109375 816.445312 160.476562 805.351562 154.949219 C 794.242188 149.394531 782.050781 145.460938 769.460938 144.46875 C 709.46875 139.734375 665.890625 165.34375 666.53125 205.082031 Z M 814.660156 777.519531 L 810.601562 800.820312 C 814.300781 800.667969 817.984375 800.472656 821.695312 800.367188 C 847.5625 799.664062 873.488281 800.003906 899.378906 801.449219 C 925.269531 802.921875 951.132812 805.546875 976.757812 809.898438 C 989.589844 811.964844 1002.285156 814.796875 1014.933594 817.902344 C 1027.484375 821.296875 1039.980469 825.101562 1052.070312 830.105469 C 1040.507812 823.980469 1028.347656 818.953125 1016.039062 814.332031 C 1003.636719 810.003906 991.09375 805.929688 978.367188 802.59375 C 952.929688 795.746094 927.03125 790.578125 900.941406 786.585938 C 874.839844 782.621094 848.542969 779.761719 822.164062 777.953125 C 819.667969 777.789062 817.15625 777.671875 814.660156 777.519531 Z M 816.140625 1292.425781 C 860.152344 1268.519531 890.101562 1221.933594 890.101562 1168.425781 C 890.101562 1118.59375 864.105469 1074.75 825 1049.640625 L 824.320312 1068.132812 C 854.738281 1091.023438 874.421875 1127.425781 874.421875 1168.425781 C 874.421875 1212.703125 851.460938 1251.589844 816.820312 1273.910156 Z M 698.5 718.390625 L 714.707031 823.046875 C 725.476562 821.949219 737.410156 821.34375 750 821.34375 C 764.609375 821.34375 778.351562 822.160156 790.402344 823.605469 L 809.785156 719.652344 C 810.84375 713.980469 807.195312 708.484375 801.558594 707.261719 C 786.261719 703.957031 770.664062 702.183594 754.96875 701.972656 C 754.886719 701.972656 754.808594 701.972656 754.714844 701.972656 C 738.695312 701.789062 722.710938 703.234375 707.015625 706.28125 C 701.394531 707.375 697.625 712.730469 698.5 718.390625 Z M 682.082031 847.722656 L 684.207031 877.042969 C 688.011719 866.507812 689.855469 861.210938 693.402344 850.605469 C 694.136719 860.3125 694.554688 865.167969 695.5 874.886719 C 699.046875 864.246094 700.761719 858.925781 704.054688 848.238281 C 705.023438 858.191406 705.558594 863.171875 706.738281 873.125 C 709.957031 862.667969 711.496094 857.429688 714.460938 846.929688 C 715.664062 857.046875 716.316406 862.097656 717.738281 872.214844 C 720.65625 861.863281 722.054688 856.683594 724.726562 846.300781 C 726.210938 856.789062 727.003906 862.015625 728.71875 872.492188 C 731.34375 861.46875 732.59375 855.9375 734.972656 844.875 C 736.535156 855.691406 737.386719 861.09375 739.183594 871.898438 C 741.542969 860.929688 742.648438 855.425781 744.761719 844.421875 C 746.722656 856.125 747.769531 861.96875 749.988281 873.648438 C 752.226562 861.96875 753.277344 856.125 755.25 844.433594 C 757.398438 855.691406 758.539062 861.316406 760.933594 872.539062 C 762.835938 861.210938 763.722656 855.550781 765.367188 844.199219 C 767.839844 855.75 769.144531 861.515625 771.886719 873.019531 C 773.488281 861.992188 774.222656 856.472656 775.585938 845.4375 C 778.316406 856.871094 779.75 862.578125 782.738281 873.976562 C 784.105469 862.855469 784.722656 857.304688 785.84375 846.183594 C 788.910156 857.863281 790.519531 863.683594 793.871094 875.304688 C 794.964844 864.476562 795.445312 859.066406 796.308594 848.238281 C 799.550781 859.449219 801.230469 865.050781 804.730469 876.203125 C 805.734375 865.972656 806.179688 860.851562 806.960938 850.605469 C 810.507812 861.210938 812.351562 866.507812 816.152344 877.042969 L 817.914062 847.570312 C 807.894531 843.347656 784.605469 838.855469 750.1875 838.855469 C 715.347656 838.855469 691.90625 843.453125 682.082031 847.722656 Z M 687.507812 908.6875 C 687.683594 925.019531 687.859375 933.199219 688.382812 949.546875 C 692.933594 932.289062 695.105469 923.644531 699.246094 906.316406 C 699.773438 922.640625 700.121094 930.808594 700.996094 947.140625 C 705.140625 929.664062 707.109375 920.914062 710.855469 903.378906 C 711.730469 919.898438 712.246094 928.160156 713.480469 944.679688 C 717.15625 927.832031 718.894531 919.410156 722.171875 902.515625 C 723.46875 918.871094 724.214844 927.039062 725.871094 943.386719 C 729.125 925.8125 730.644531 917.015625 733.492188 899.398438 C 735.125 916.957031 736.046875 925.730469 738.074219 943.28125 C 740.886719 925.847656 742.195312 917.121094 744.609375 899.644531 C 746.652344 917.167969 747.761719 925.917969 750.175781 943.417969 C 752.601562 925.917969 753.710938 917.167969 755.742188 899.644531 C 758.167969 917.121094 759.472656 925.847656 762.285156 943.28125 C 764.316406 925.730469 765.226562 916.957031 766.871094 899.398438 C 769.71875 917.015625 771.234375 925.8125 774.476562 943.386719 C 776.148438 927.039062 776.882812 918.871094 778.1875 902.515625 C 781.480469 919.464844 783.21875 927.925781 786.902344 944.820312 C 788.152344 928.601562 788.675781 920.503906 789.574219 904.289062 C 793.285156 921.507812 795.246094 930.097656 799.363281 947.246094 C 800.238281 930.867188 800.589844 922.6875 801.113281 906.316406 C 805.269531 923.691406 807.4375 932.359375 812 949.660156 C 812.550781 933.5625 812.734375 925.523438 812.933594 909.457031 C 817.472656 926.492188 819.839844 934.984375 824.777344 951.949219 C 825.007812 936.082031 824.601562 900.671875 824.601562 900.671875 C 814.078125 895.945312 788.234375 890.671875 750.175781 890.671875 C 711.695312 890.671875 685.6875 896.0625 675.398438 900.832031 C 675.398438 900.832031 675.351562 936.035156 675.574219 951.855469 C 680.554688 934.632812 682.949219 926 687.507812 908.6875 Z M 655.121094 1181.015625 C 655.0625 1170.644531 655.949219 1160.492188 658.328125 1150.691406 C 659.109375 1148.289062 659.742188 1145.859375 660.417969 1143.457031 C 661.058594 1141.042969 662.179688 1138.777344 663.019531 1136.433594 C 663.765625 1134.042969 664.933594 1131.835938 665.996094 1129.585938 L 667.59375 1126.214844 C 668.140625 1125.09375 668.875 1124.089844 669.484375 1123.003906 C 671.582031 1119.210938 673.976562 1115.597656 676.542969 1112.105469 L 675.785156 1088.210938 C 667.394531 1095.773438 660.171875 1104.640625 654.640625 1114.523438 C 648.84375 1124.8125 644.691406 1136.015625 642.414062 1147.601562 C 640.304688 1159.230469 640.035156 1171.144531 641.621094 1182.8125 C 643.195312 1194.480469 646.558594 1205.949219 651.957031 1216.414062 C 657.347656 1226.890625 664.394531 1236.433594 672.679688 1244.742188 C 672.9375 1245 673.34375 1245.058594 673.683594 1244.871094 C 674.089844 1244.648438 674.230469 1244.136719 674 1243.726562 L 673.894531 1243.527344 C 662.167969 1222.75 655.527344 1201.875 655.121094 1181.015625 Z M 820.308594 972.808594 C 812.339844 969.777344 803.972656 967.792969 795.574219 966.125 C 787.148438 964.492188 778.621094 963.3125 770.019531 962.566406 C 761.421875 961.855469 752.753906 961.585938 744.0625 961.75 C 738.332031 961.855469 732.617188 962.25 726.886719 962.8125 C 706.257812 964.011719 694.660156 966.648438 688.617188 968.621094 L 689.691406 1002.539062 C 693.355469 995.503906 699.011719 989.796875 705.652344 985.164062 C 713.234375 979.855469 721.917969 976.320312 730.945312 974.304688 C 735.554688 973.277344 740.210938 972.378906 744.914062 971.667969 C 753.148438 970.441406 761.480469 969.601562 769.882812 969.203125 C 778.269531 968.832031 786.707031 968.902344 795.140625 969.414062 C 803.578125 969.976562 812.035156 970.839844 820.308594 972.808594 Z M 809.257812 1052.648438 C 810.003906 1041.054688 807.078125 1029.082031 800.929688 1018.710938 C 794.8125 1008.347656 785.234375 999.46875 773.3125 994.675781 C 761.421875 989.761719 747.679688 989.519531 735.300781 992.761719 C 735.300781 992.761719 734.214844 993.089844 733.792969 993.261719 C 707.554688 1000.871094 689.621094 1026.386719 692.5625 1054.503906 C 695.863281 1086.078125 724.238281 1109.097656 755.820312 1105.796875 C 779.390625 1103.332031 778.703125 1038.882812 763.699219 1007.742188 C 765.367188 1007.917969 767.035156 1008.164062 768.691406 1008.570312 C 777.851562 1010.71875 786.496094 1016.351562 792.878906 1024.238281 C 799.28125 1032.09375 803.496094 1042.125 804.371094 1052.683594 C 805.316406 1063.246094 802.726562 1074.316406 796.796875 1083.742188 C 804.019531 1075.320312 808.582031 1064.257812 809.257812 1052.648438 Z M 694.40625 1377.996094 C 694.40625 1384.027344 696.960938 1389.839844 700.738281 1394.433594 C 704.554688 1399.054688 709.503906 1402.566406 714.71875 1405.355469 C 725.253906 1410.898438 737.175781 1413.277344 748.984375 1413.464844 C 760.804688 1413.289062 772.714844 1410.898438 783.253906 1405.355469 C 788.46875 1402.566406 793.414062 1399.054688 797.242188 1394.433594 C 801.011719 1389.839844 803.578125 1384.027344 803.566406 1377.996094 C 803.566406 1377.796875 803.4375 1377.609375 803.238281 1377.539062 C 802.992188 1377.449219 802.714844 1377.585938 802.621094 1377.832031 L 802.574219 1377.996094 C 800.566406 1383.703125 797.207031 1387.808594 793.109375 1390.957031 C 792.097656 1391.738281 791.011719 1392.488281 789.996094 1393.222656 C 788.851562 1393.863281 787.765625 1394.539062 786.636719 1395.136719 C 785.410156 1395.648438 784.324219 1396.300781 783.160156 1396.839844 L 779.578125 1398.320312 C 774.6875 1400.011719 769.707031 1401.539062 764.527344 1402.21875 C 759.402344 1403.105469 754.199219 1403.59375 748.984375 1403.511719 C 743.769531 1403.628906 738.566406 1403.09375 733.445312 1402.242188 C 728.261719 1401.550781 723.28125 1400.046875 718.382812 1398.34375 C 713.597656 1396.453125 708.824219 1394.226562 704.847656 1390.96875 C 700.75 1387.808594 697.402344 1383.703125 695.40625 1377.996094 L 695.351562 1377.832031 C 695.28125 1377.644531 695.105469 1377.519531 694.894531 1377.519531 C 694.625 1377.519531 694.40625 1377.726562 694.40625 1377.996094 Z M 751.015625 1184.292969 C 750.945312 1184.292969 750.863281 1184.292969 750.792969 1184.292969 C 726.246094 1183.828125 707.378906 1192.742188 695.933594 1200.207031 L 700.636719 1348.921875 C 700.636719 1348.910156 700.648438 1348.910156 700.648438 1348.910156 C 702.070312 1347.777344 703.574219 1346.691406 705.152344 1345.664062 C 705.289062 1345.570312 705.429688 1345.492188 705.570312 1345.398438 C 707.015625 1344.476562 708.523438 1343.589844 710.085938 1342.75 C 710.355469 1342.609375 710.621094 1342.480469 710.890625 1342.339844 C 712.347656 1341.582031 713.855469 1340.882812 715.394531 1340.21875 C 715.792969 1340.042969 716.1875 1339.878906 716.597656 1339.714844 C 718.042969 1339.121094 719.523438 1338.570312 721.042969 1338.058594 C 721.566406 1337.882812 722.066406 1337.707031 722.59375 1337.546875 C 724.039062 1337.089844 725.523438 1336.683594 727.015625 1336.296875 C 727.632812 1336.144531 728.25 1335.96875 728.882812 1335.828125 C 730.339844 1335.492188 731.832031 1335.210938 733.339844 1334.953125 C 734.027344 1334.839844 734.691406 1334.6875 735.390625 1334.582031 C 736.957031 1334.347656 738.542969 1334.183594 740.140625 1334.03125 C 740.804688 1333.976562 741.449219 1333.871094 742.101562 1333.824219 C 744.363281 1333.660156 746.664062 1333.554688 748.984375 1333.554688 C 749.019531 1333.554688 749.054688 1333.566406 749.089844 1333.566406 C 751.039062 1333.566406 752.976562 1333.636719 754.875 1333.765625 C 756.546875 1333.871094 758.191406 1334.042969 759.824219 1334.242188 C 759.976562 1334.265625 760.128906 1334.265625 760.265625 1334.289062 C 760.289062 1334.289062 760.300781 1334.289062 760.324219 1334.300781 C 778.105469 1336.507812 793.332031 1343.789062 802.773438 1353.925781 C 802.863281 1354.03125 802.96875 1354.113281 803.0625 1354.207031 C 800.976562 1350.121094 798.175781 1346.355469 795.117188 1342.808594 C 792.050781 1339.25 788.640625 1335.945312 784.980469 1332.855469 C 781.28125 1329.867188 777.394531 1326.960938 773.230469 1324.476562 C 772.820312 1324.222656 772.378906 1324 771.957031 1323.753906 C 771.886719 1298.984375 771.734375 1254.917969 771.480469 1205.539062 C 771.421875 1194.128906 762.414062 1184.539062 751.015625 1184.292969 Z M 771.128906 1148.507812 C 771.070312 1139.023438 771 1129.539062 770.917969 1120.132812 C 764.28125 1122.046875 757.269531 1123.085938 750 1123.085938 C 727.039062 1123.085938 706.480469 1112.808594 692.667969 1096.601562 L 695.339844 1181.285156 C 708.824219 1174.039062 727.785156 1167.246094 751.109375 1167.691406 C 751.179688 1167.703125 751.25 1167.703125 751.316406 1167.703125 C 762.191406 1167.925781 771.210938 1159.382812 771.128906 1148.507812 Z M 1019.914062 897.519531 C 1031.769531 900.71875 1043.550781 904.335938 1055.007812 908.929688 L 1055.300781 908.847656 C 1044.253906 903.121094 1032.714844 898.335938 1021.023438 893.949219 C 1008.621094 889.621094 996.078125 885.539062 983.335938 882.210938 C 957.914062 875.363281 932.011719 870.195312 905.910156 866.203125 C 882.726562 862.679688 859.382812 860.078125 835.953125 858.257812 L 835.953125 879.820312 C 858.738281 879.425781 881.5625 879.796875 904.359375 881.058594 C 930.238281 882.527344 956.105469 885.164062 981.738281 889.515625 C 994.570312 891.582031 1007.265625 894.40625 1019.914062 897.519531 Z M 1008.679688 933.722656 L 1000.042969 936.394531 L 1000.042969 936.40625 L 991.644531 939.019531 C 956.945312 949.707031 936.292969 996.679688 943.597656 1048.296875 C 946.117188 1066.054688 951.859375 1082.449219 959.734375 1096.34375 C 960.457031 1097.699219 961.191406 1099.039062 961.972656 1100.371094 C 969.558594 1113.261719 979.324219 1124.882812 991.164062 1133.492188 C 982.660156 1125.058594 976.066406 1115.105469 971.0625 1104.535156 C 979.230469 1099.820312 987.140625 1094.417969 994.886719 1089.949219 C 997.105469 1088.667969 999.320312 1087.359375 1001.527344 1086.066406 C 1003.589844 1089.097656 1005.714844 1092.085938 1007.941406 1094.957031 C 1014.058594 1102.855469 1020.671875 1110.277344 1027.789062 1117.136719 C 1034.835938 1124.019531 1042.398438 1130.554688 1050.855469 1135.558594 C 1043.027344 1129.597656 1036.445312 1122.386719 1030.273438 1114.847656 C 1024.066406 1107.359375 1018.457031 1099.414062 1013.449219 1091.175781 C 1008.714844 1083.441406 1004.640625 1075.332031 1001.351562 1067.011719 C 998.386719 1058.789062 995.949219 1050.222656 994.152344 1041.367188 C 993.988281 1040.386719 993.789062 1039.417969 993.664062 1038.4375 L 993.570312 1038.449219 C 986.148438 998.546875 992.589844 960.523438 1008.679688 933.722656 Z M 1090.992188 1016.222656 C 1092.214844 1022.570312 1093.769531 1028.71875 1095.625 1034.648438 C 1100.628906 1050.679688 1116.484375 1037.039062 1131.886719 1012.886719 C 1124.96875 981.5625 1127.953125 948.203125 1151.429688 938.25 C 1155.558594 936.5 1160.039062 934.679688 1164.777344 932.800781 C 1166.75 921.113281 1166.644531 910.855469 1163.503906 903.597656 C 1169.804688 904.789062 1176.011719 907.050781 1181.71875 910.25 C 1186.933594 913.179688 1191.773438 916.828125 1196.242188 920.972656 C 1199.335938 919.851562 1202.472656 918.730469 1205.671875 917.601562 C 1200.210938 911.496094 1193.957031 906.003906 1186.863281 901.558594 C 1176.058594 894.835938 1163.316406 890.742188 1150.027344 890.929688 C 1144.464844 891.078125 1138.875 892.351562 1133.695312 894.601562 C 1098.996094 907.671875 1080.117188 959.835938 1090.992188 1016.222656 Z M 1318.449219 812.078125 L 1323.289062 775.433594 L 1328.050781 811.355469 L 1333.277344 771.347656 L 1338.039062 807.832031 L 1343.253906 767.277344 L 1348.035156 804.460938 L 1353.226562 764.476562 L 1358.023438 801.347656 L 1363.214844 762.144531 L 1368.140625 799.386719 L 1373.191406 758.828125 L 1378.171875 798.917969 L 1383.167969 758.828125 L 1388.160156 798.917969 L 1393.144531 758.828125 L 1398.136719 798.917969 L 1403.128906 758.828125 L 1408.171875 799.386719 L 1413.105469 762.144531 L 1418.273438 801.21875 L 1423.082031 763.636719 L 1428.296875 804.355469 L 1433.058594 767.277344 L 1438.273438 807.726562 L 1443.042969 770.648438 L 1448.269531 811.273438 L 1453.019531 775.433594 L 1457.875 812.078125 L 1457.875 768.140625 C 1454.640625 762.855469 1430.453125 750.582031 1388.160156 750.582031 C 1345.855469 750.582031 1321.667969 762.855469 1318.449219 768.140625 Z M 1322.8125 736.589844 L 1327.488281 712.558594 L 1331.832031 734.898438 L 1336.824219 709.242188 L 1341.410156 732.800781 L 1346.15625 705.917969 L 1350.578125 730.933594 L 1355.492188 703.128906 L 1360.042969 728.867188 L 1364.824219 701.800781 L 1369.351562 727.410156 L 1374.160156 700.210938 L 1378.828125 726.617188 L 1383.492188 700.210938 L 1388.324219 727.539062 L 1393.144531 700.210938 L 1397.703125 726.019531 L 1402.160156 700.832031 L 1406.769531 726.90625 L 1411.496094 702.59375 L 1416.277344 727.210938 L 1420.828125 703.828125 L 1425.695312 728.878906 L 1430.164062 705.917969 L 1435.144531 731.574219 L 1439.496094 709.242188 L 1444.480469 734.898438 L 1448.820312 712.558594 L 1453.5 736.589844 L 1453.5 711.0625 C 1449.953125 706 1427.597656 694.972656 1388.160156 694.972656 C 1348.726562 694.972656 1326.359375 706 1322.8125 711.0625 Z M 1334.96875 579.628906 L 1352.003906 681.625 C 1362.914062 679.550781 1375.175781 678.371094 1388.160156 678.371094 C 1400.003906 678.371094 1411.261719 679.351562 1421.425781 681.113281 L 1439.113281 579.570312 C 1440.035156 574.25 1436.570312 569.140625 1431.273438 568.066406 C 1416.921875 565.152344 1402.3125 563.65625 1387.636719 563.644531 C 1387.554688 563.644531 1387.472656 563.644531 1387.390625 563.644531 C 1372.386719 563.644531 1357.453125 565.175781 1342.796875 568.207031 C 1337.546875 569.292969 1334.082031 574.34375 1334.96875 579.628906 Z M 1340.59375 552.980469 C 1373.097656 547.90625 1407.46875 548.011719 1440.441406 554.777344 C 1416.046875 545.875 1390.644531 540.066406 1364.523438 537.917969 C 1351.246094 536.824219 1341.1875 525.503906 1341.410156 512.179688 C 1343.324219 395.808594 1318.074219 112.757812 1331.667969 77.300781 C 1333.195312 73.335938 1335.308594 69.707031 1337.851562 66.390625 C 1343.382812 59.171875 1351.09375 53.976562 1359.492188 50.5 C 1372.375 45.179688 1386.105469 41.820312 1400.28125 41.414062 C 1411.308594 41.074219 1422.496094 42.519531 1433.183594 46.03125 C 1443.859375 49.53125 1454.023438 55.121094 1462.632812 62.867188 C 1455.238281 53.976562 1445.703125 46.699219 1435.085938 41.425781 C 1424.445312 36.136719 1412.753906 32.636719 1400.738281 31.460938 C 1355.992188 27.050781 1300.5625 40.734375 1301.074219 67.722656 L 1329.148438 543.753906 C 1329.484375 549.609375 1334.792969 553.890625 1340.59375 552.980469 Z M 1467.195312 966.507812 L 1467.195312 966.578125 C 1419.488281 998.558594 1369.222656 1036.734375 1392.6875 1103.089844 C 1416.140625 1169.453125 1423.863281 1208.386719 1423.863281 1208.386719 L 1423.863281 1208.398438 C 1429.683594 1225.328125 1407.867188 1248.160156 1375.152344 1259.398438 C 1342.425781 1270.644531 1311.191406 1266.023438 1305.367188 1249.09375 C 1305.355469 1249.058594 1248.828125 1093.800781 1234.082031 1080.09375 C 1233.359375 1079.414062 1232.5625 1078.796875 1231.734375 1078.226562 C 1219.167969 1103.53125 1198.914062 1121.066406 1174.179688 1124.578125 L 1104.492188 1136.492188 L 1104.492188 1484.589844 L 396.804688 1484.589844 L 396.804688 1136.714844 L 325.820312 1124.578125 C 301.085938 1121.066406 280.828125 1103.53125 268.265625 1078.226562 C 267.4375 1078.796875 266.640625 1079.414062 265.917969 1080.09375 C 251.171875 1093.800781 194.644531 1249.058594 194.632812 1249.09375 C 188.808594 1266.023438 157.574219 1270.644531 124.847656 1259.398438 C 92.132812 1248.160156 70.316406 1225.328125 76.136719 1208.398438 L 76.136719 1208.386719 C 76.136719 1208.386719 83.859375 1169.453125 107.3125 1103.089844 C 130.765625 1036.734375 80.511719 998.558594 32.804688 966.578125 L 32.804688 966.507812 C 12.398438 956.847656 -0.0390625 930.375 4.066406 901.429688 C 7.402344 877.882812 20.761719 858.925781 37.621094 850.710938 L 38.007812 841.480469 C 30.085938 836.429688 25.523438 830.492188 25.523438 824.144531 L 25.523438 767.429688 C 25.523438 762.074219 28.800781 756.996094 34.589844 752.507812 C 31.566406 749.191406 29.898438 745.621094 29.898438 741.898438 L 29.898438 710.140625 C 29.898438 699.640625 43.035156 690.34375 63.269531 684.554688 L 42.839844 562.234375 L 23.039062 66.390625 C 23.039062 38.226562 65.882812 15.382812 118.722656 15.382812 C 171.554688 15.382812 214.394531 38.226562 214.394531 66.390625 C 214.394531 67.382812 214.324219 68.363281 214.222656 69.34375 L 186.195312 564.496094 L 165.042969 685.988281 C 182.625 691.8125 193.792969 700.46875 193.792969 710.140625 L 193.792969 741.898438 C 193.792969 745.621094 192.121094 749.191406 189.089844 752.507812 C 194.886719 757.007812 198.15625 762.074219 198.15625 767.429688 L 198.15625 824.144531 C 198.15625 830.585938 193.453125 836.59375 185.308594 841.703125 L 185.308594 869.84375 C 185.308594 877.136719 190.058594 883.578125 197.023438 885.710938 C 227.824219 895.152344 259.757812 905.511719 288.191406 915.441406 C 307.78125 891.910156 333.71875 878.898438 360.085938 882.632812 C 366.902344 883.601562 373.363281 885.65625 379.441406 888.628906 L 396.804688 894.007812 L 396.804688 864.363281 C 396.804688 812.476562 522.195312 769.34375 687.472656 760.453125 L 677.464844 700.46875 L 650.816406 196.84375 C 649.835938 182.121094 655.015625 167.605469 665.363281 157.082031 C 679.378906 142.835938 704.917969 127.496094 750 127.496094 C 797.183594 127.496094 822.96875 144.308594 836.527344 159.066406 C 845.578125 168.925781 850.210938 182.050781 849.828125 195.433594 L 828.007812 700.855469 L 817.601562 760.660156 C 981.003906 769.996094 1104.492188 812.875 1104.492188 864.363281 L 1104.492188 893.601562 L 1120.558594 888.628906 C 1126.636719 885.65625 1133.097656 883.601562 1139.914062 882.632812 C 1166.28125 878.898438 1192.21875 891.910156 1211.808594 915.441406 C 1240.242188 905.511719 1272.164062 895.152344 1302.976562 885.710938 C 1309.941406 883.578125 1314.691406 877.136719 1314.691406 869.84375 L 1314.691406 841.703125 C 1306.546875 836.59375 1301.84375 830.585938 1301.84375 824.144531 L 1301.84375 767.429688 C 1301.84375 762.074219 1305.113281 757.007812 1310.910156 752.507812 C 1307.878906 749.191406 1306.207031 745.621094 1306.207031 741.898438 L 1306.207031 710.140625 C 1306.207031 700.46875 1317.375 691.8125 1334.957031 685.988281 L 1313.804688 564.496094 L 1285.777344 69.34375 C 1285.675781 68.363281 1285.605469 67.382812 1285.605469 66.390625 C 1285.605469 38.226562 1328.433594 15.382812 1381.277344 15.382812 C 1434.117188 15.382812 1476.960938 38.226562 1476.960938 66.390625 L 1457.160156 562.234375 L 1436.730469 684.554688 C 1456.964844 690.34375 1470.101562 699.640625 1470.101562 710.140625 L 1470.101562 741.898438 C 1470.101562 745.621094 1468.433594 749.191406 1465.410156 752.507812 C 1471.199219 756.996094 1474.476562 762.074219 1474.476562 767.429688 L 1474.476562 824.144531 C 1474.476562 830.492188 1469.914062 836.429688 1461.992188 841.480469 L 1462.378906 850.710938 C 1479.238281 858.925781 1492.59375 877.882812 1495.933594 901.429688 C 1500.027344 930.375 1487.601562 956.847656 1467.195312 966.507812 Z M 1345.867188 584.390625 C 1345.269531 580.832031 1347.617188 577.390625 1351.175781 576.773438 C 1357.59375 575.664062 1364.054688 574.871094 1370.554688 574.34375 C 1362.105469 584.085938 1354.535156 580.386719 1355.375 591.742188 C 1355.992188 600.152344 1364.5 664.59375 1360.460938 671.800781 L 1345.867188 584.390625 " fill-opacity="1" fill-rule="nonzero"/></svg>